#!OML:ASF I:\Actors\actors\Patient Classification 2\Patient 1\Session 1\actor1.ASF
:FULLY-SPECIFIED
:DEGREES
281
root -0.466696 18.708 5.74306 3.03389 -4.28099 -1.17452
lowerback 2.09893 0.834015 -2.03016
upperback -1.78874 1.06385 0.76157
thorax -3.06724 0.583341 1.87067
lowerneck -15.5608 -2.63687 -1.86449
upperneck 22.1656 -4.19108 3.92423
head 9.71648 -1.66034 1.13482
rclavicle 1.91819e-014 -1.74931e-014
rhumerus -17.188 33.5703 -76.4059
rradius 119.794
rwrist 11.6851
rhand -30.3801 -33.5827
rfingers 7.12502
rthumb -3.68449 -63.5306
lclavicle 1.91819e-014 -1.74931e-014
lhumerus -8.23827 -22.2858 71.6136
lradius 108.731
lwrist 22.4614
lhand -19.8837 -42.7623
lfingers 7.12502
lthumb 6.45209 -12.8806
rfemur 0 0 0
rtibia 0
rfoot 0 0
rtoes 0
lfemur -4.40596 -4.42493 -14.0923
ltibia 21.211
lfoot -25.2853 17.7519
ltoes -53.4563
282
root -0.466975 18.7055 5.76372 3.05019 -4.21751 -1.17525
lowerback 2.53946 0.853949 -1.72139
upperback -2.14027 1.08647 0.552206
thorax -3.66986 0.593325 1.47153
lowerneck -15.5688 -2.85296 -1.63507
upperneck 23.7837 -4.58594 3.73302
head 10.3001 -1.82344 0.979723
rclavicle 7.05181e-015 -3.77691e-015
rhumerus -24.2526 34.314 -79.9697
rradius 119.865
rwrist 11.9492
rhand -28.6067 -31.9577
rfingers 7.12502
rthumb -1.9719 -61.9284
lclavicle 7.05181e-015 -3.77691e-015
lhumerus -14.9893 -24.2424 73.8932
lradius 109.635
lwrist 21.432
lhand -19.4952 -42.955
lfingers 7.12502
lthumb 6.82717 -13.0851
rfemur 0 0 0
rtibia 0
rfoot 0 0
rtoes 0
lfemur -4.37527 -4.32928 -14.0833
ltibia 21.2262
lfoot -25.2446 17.6567
ltoes -53.5249
283
root -0.468652 18.7014 5.78573 3.04538 -4.14259 -1.17742
lowerback 2.67117 0.866277 -1.49197
upperback -2.25587 1.10366 0.362461
thorax -3.85604 0.595257 1.14342
lowerneck -15.6354 -3.08827 -1.61851
upperneck 25.2002 -5.01585 3.80176
head 10.8488 -1.989 0.943099
rclavicle 3.51989e-015 -8.94531e-015
rhumerus -31.2413 34.0494 -83.7695
rradius 119.741
rwrist 11.9566
rhand -26.3045 -29.9298
rfingers 7.12502
rthumb 0.251642 -59.9094
lclavicle 3.51989e-015 -8.94531e-015
lhumerus -21.3985 -25.6576 76.4254
lradius 109.841
lwrist 20.5489
lhand -18.2796 -41.668
lfingers 7.12502
lthumb 8.00049 -11.8394
rfemur 0 0 0
rtibia 0
rfoot 0 0
rtoes 0
lfemur -4.3187 -4.2965 -14.0764
ltibia 21.2557
lfoot -25.2409 17.5981
ltoes -53.5987
284
root -0.471606 18.6974 5.80786 3.04433 -4.04136 -1.217
lowerback 2.63083 0.898219 -1.37544
upperback -2.23824 1.14805 0.246867
thorax -3.81133 0.612088 0.957134
lowerneck -15.4971 -3.35246 -1.89627
upperneck 26.1943 -5.4931 4.22516
head 11.2336 -2.16751 1.07923
rclavicle -6.60027e-015 -9.93923e-015
rhumerus -36.6298 34.17 -86.3422
rradius 118.821
rwrist 11.1391
rhand -23.7102 -28.947
rfingers 7.12502
rthumb 2.7572 -58.9089
lclavicle -6.60027e-015 -9.93923e-015
lhumerus -27.4712 -26.3693 79.2303
lradius 109.464
lwrist 20.0625
lhand -15.6749 -39.1642
lfingers 7.12502
lthumb 10.5137 -9.44716
rfemur 0 0 0
rtibia 0
rfoot 0 0
rtoes 0
lfemur -4.27453 -4.33115 -14.0237
ltibia 21.29
lfoot -25.3572 17.5245
ltoes -53.6555
285
root -0.475275 18.6957 5.82658 3.10242 -3.87448 -1.25834
lowerback 2.56518 0.922069 -1.38507
upperback -2.22805 1.17902 0.204212
thorax -3.76375 0.626821 0.91793
lowerneck -15.3271 -3.63895 -2.10489
upperneck 27.0793 -5.95724 4.41587
head 11.5698 -2.36269 1.12197
rclavicle -1.2087e-014 2.127e-014
rhumerus -42.0681 33.3822 -89.0082
rradius 117.704
rwrist 10.6097
rhand -20.3786 -28.5078
rfingers 7.12502
rthumb 5.97428 -58.4035
lclavicle -1.2087e-014 2.127e-014
lhumerus -33.2004 -26.2464 82.2211
lradius 108.517
lwrist 19.9276
lhand -12.0638 -36.1006
lfingers 7.12502
lthumb 13.9956 -6.59171
rfemur 0 0 0
rtibia 0
rfoot 0 0
rtoes 0
lfemur -4.32851 -4.3758 -13.9516
ltibia 21.3172
lfoot -25.3961 17.462
ltoes -53.8064
286
root -0.478047 18.694 5.84483 3.14542 -3.72215 -1.2939
lowerback 2.49779 0.951601 -1.45674
upperback -2.18198 1.21716 0.217007
thorax -3.68086 0.647128 0.970627
lowerneck -15.2072 -3.92823 -2.3726
upperneck 27.8701 -6.38325 4.52354
head 11.8845 -2.55685 1.14839
rclavicle -2.14237e-014 7.95139e-015
rhumerus -47.1775 31.9062 -91.4958
rradius 116.279
rwrist 10.1951
rhand -16.9678 -29.1426
rfingers 7.12502
rthumb 9.2664 -58.9189
lclavicle -2.14237e-014 7.95139e-015
lhumerus -38.2182 -25.3472 85.1056
lradius 106.947
lwrist 19.7985
lhand -8.12778 -32.7781
lfingers 7.12502
lthumb 17.7859 -3.57145
rfemur 0 0 0
rtibia 0
rfoot 0 0
rtoes 0
lfemur -4.35443 -4.44159 -13.8998
ltibia 21.3339
lfoot -25.2898 17.4544
ltoes -53.8634
287
root -0.480891 18.6918 5.86311 3.13406 -3.66008 -1.3031
lowerback 2.49049 0.993906 -1.58189
upperback -2.11413 1.26963 0.236518
thorax -3.61144 0.675885 1.05864
lowerneck -15.0272 -4.16787 -2.68243
upperneck 28.4778 -6.73036 4.67023
head 12.1211 -2.71927 1.20876
rclavicle 1.322e-015 4.57205e-015
rhumerus -51.3438 29.6746 -93.1544
rradius 114.47
rwrist 11.1351
rhand -11.0106 -30.6916
rfingers 7.12502
rthumb 15.0103 -60.1275
lclavicle 1.322e-015 4.57205e-015
lhumerus -42.513 -23.9131 87.5683
lradius 104.853
lwrist 18.8338
lhand -4.24144 -30.1138
lfingers 7.12502
lthumb 21.5221 -1.28954
rfemur 0 0 0
rtibia 0
rfoot 0 0
rtoes 0
lfemur -4.29912 -4.44909 -13.8884
ltibia 21.3533
lfoot -25.2549 17.4359
ltoes -53.9194
288
root -0.485012 18.6896 5.87889 3.11628 -3.64499 -1.26446
lowerback 2.56313 1.04163 -1.77728
upperback -2.0663 1.32454 0.244829
thorax -3.60979 0.707956 1.17268
lowerneck -14.8615 -4.33801 -2.96531
upperneck 29.0449 -6.98701 4.82421
head 12.3443 -2.83797 1.28115
rclavicle 9.0183e-015 -1.88845e-014
rhumerus -55.0683 27.385 -94.6866
rradius 112.197
rwrist 11.0984
rhand -9.49777 -31.1168
rfingers 7.12502
rthumb 16.4672 -60.4379
lclavicle 9.0183e-015 -1.88845e-014
lhumerus -46.2573 -22.2955 89.5653
lradius 102.391
lwrist 16.742
lhand -0.831866 -29.3293
lfingers 7.12502
lthumb 24.7934 -0.916462
rfemur 0 0 0
rtibia 0
rfoot 0 0
rtoes 0
lfemur -4.2514 -4.3562 -13.9163
ltibia 21.3896
lfoot -25.2707 17.3679
ltoes -54.053
289
root -0.484942 18.6885 5.89115 3.16115 -3.52449 -1.24933
lowerback 2.66021 1.04285 -1.86192
upperback -2.06435 1.32026 0.231323
thorax -3.6643 0.708203 1.20466
lowerneck -14.7194 -4.46844 -3.2335
upperneck 29.626 -7.20372 5.00916
head 12.5813 -2.93282 1.36934
rclavicle 2.08879e-015 3.37934e-015
rhumerus -58.314 25.0094 -95.9092
rradius 109.536
rwrist 10.4767
rhand -4.06946 -32.5511
rfingers 7.12502
rthumb 21.6873 -61.3564
lclavicle 2.08879e-015 3.37934e-015
lhumerus -49.3962 -20.5837 90.982
lradius 99.8048
lwrist 13.0543
lhand 2.11592 -29.9912
lfingers 7.12502
lthumb 27.6154 -1.99775
rfemur 0 0 0
rtibia 0
rfoot 0 0
rtoes 0
lfemur -4.31031 -4.45151 -13.9327
ltibia 21.4327
lfoot -25.2587 17.4009
ltoes -54.097
290
root -0.481569 18.6898 5.90025 3.27994 -3.27053 -1.30354
lowerback 2.69556 0.993261 -1.79785
upperback -2.07571 1.25506 0.202197
thorax -3.69151 0.673985 1.14191
lowerneck -14.5387 -4.59032 -3.4562
upperneck 30.0955 -7.41775 5.19773
head 12.7668 -3.02398 1.45267
rclavicle 4.395e-015 3.97569e-015
rhumerus -61.0097 22.6654 -96.7166
rradius 106.775
rwrist 9.57854
rhand -4.29854 -31.9052
rfingers 7.12502
rthumb 21.4673 -60.7358
lclavicle 4.395e-015 3.97569e-015
lhumerus -51.9959 -19.018 91.9968
lradius 97.3381
lwrist 9.35113
lhand 4.01203 -30.9196
lfingers 7.12502
lthumb 29.4272 -3.23014
rfemur 0 0 0
rtibia 0
rfoot 0 0
rtoes 0
lfemur -4.48405 -4.75389 -13.8803
ltibia 21.4738
lfoot -25.3133 17.5246
ltoes -54.1632
291
root -0.481526 18.6906 5.90598 3.36462 -3.04619 -1.37902
lowerback 2.78298 0.979344 -1.74118
upperback -2.05429 1.23649 0.174107
thorax -3.71617 0.662906 1.08105
lowerneck -14.3988 -4.71661 -3.62457
upperneck 30.3822 -7.6369 5.3746
head 12.8853 -3.11486 1.51993
rclavicle -3.3197e-014 2.22639e-014
rhumerus -63.1308 20.5427 -97.1325
rradius 104.071
rwrist 8.61375
rhand -3.63201 -31.0889
rfingers 7.12502
rthumb 22.1073 -59.8451
lclavicle -3.3197e-014 2.22639e-014
lhumerus -54.029 -17.7121 92.7446
lradius 94.8742
lwrist 7.18017
lhand 4.89696 -31.7632
lfingers 7.12502
lthumb 30.2717 -4.22547
rfemur 0 0 0
rtibia 0
rfoot 0 0
rtoes 0
lfemur -4.62137 -4.95264 -13.776
ltibia 21.5183
lfoot -25.3871 17.4743
ltoes -54.1498
292
root -0.484368 18.6904 5.90714 3.35833 -2.97275 -1.42831
lowerback 3.03915 1.02628 -1.74779
upperback -2.02508 1.293 0.140352
thorax -3.83209 0.691318 1.04216
lowerneck -14.2738 -4.80558 -3.69116
upperneck 30.5292 -7.78399 5.44366
head 12.9356 -3.17827 1.53856
rclavicle -5.45415e-015 2.38542e-015
rhumerus -64.842 18.7981 -97.2831
rradius 101.466
rwrist 8.20139
rhand -2.82693 -30.4991
rfingers 7.12502
rthumb 22.8801 -59.1618
lclavicle -5.45415e-015 2.38542e-015
lhumerus -55.4736 -16.6836 93.1766
lradius 92.3972
lwrist 6.4708
lhand 5.35695 -32.0558
lfingers 7.12502
lthumb 30.7104 -4.59952
rfemur 0 0 0
rtibia 0
rfoot 0 0
rtoes 0
lfemur -4.63692 -4.96309 -13.6979
ltibia 21.5567
lfoot -25.3953 17.3284
ltoes -54.0712
293
root -0.48744 18.6908 5.90262 3.28774 -2.95665 -1.46634
lowerback 3.35044 1.0846 -1.80567
upperback -1.95488 1.36229 0.135211
thorax -3.93914 0.727444 1.05963
lowerneck -14.1563 -4.86023 -3.74201
upperneck 30.6253 -7.85622 5.43865
head 12.9572 -3.21714 1.53735
rclavicle -5.41999e-015 1.51076e-014
rhumerus -66.1588 17.6184 -97.2151
rradius 99.0074
rwrist 8.03479
rhand -3.39407 -31.2772
rfingers 7.12502
rthumb 22.3357 -60.0062
lclavicle -5.41999e-015 1.51076e-014
lhumerus -56.2797 -16.0112 93.3054
lradius 89.9065
lwrist 6.52493
lhand 5.43756 -32.1301
lfingers 7.12502
lthumb 30.7872 -4.68826
rfemur 0 0 0
rtibia 0
rfoot 0 0
rtoes 0
lfemur -4.58119 -4.96385 -13.648
ltibia 21.5743
lfoot -25.3737 17.2829
ltoes -54.0492
